<!DOCTYPE svg PUBLIC "-//W3C//DTD SVG 1.1//EN" "http://www.w3.org/Graphics/SVG/1.1/DTD/svg11.dtd">
<svg width="520" height="405" xmlns="http://www.w3.org/2000/svg">
  <path
     fill="hsl(0,0%,100%)"
     d="M 3.5,35.749997 3.5,298 c 0,30 0.279045,30 30.625,30 l 391.75,0 c 33.625,0 33.625,0 33.625,-29.875 l 0,-262.125003 C 459.5,7.5 459.5,7.5 425.875,7.5 L 34,7.5 C 3.5,7.5 3.5,7.5 3.5,35.749997 z" />
  <path
    fill="hsl(225.6,21%,46.7%)"
    d="M 289.02989,103 A 140.46013,89.625 0 1 1 8.1096344,103 140.46013,89.625 0 1 1 289.02989,103 z" />
  <path
    fill="hsl(225,34.5%,56.9%)"
    d="m 282.1356,103.16948 a 133.4664,82.731491 0 1 1 -266.932795,0 133.4664,82.731491 0 1 1 266.932795,0 z" />
  <path
    fill="hsl(0,0%,100%)"
    d="m 132.71776,37.421062 c -7.5e-4,6.15e-4 10.15928,0.003 15.18909,0.0041 2.74323,0.0047 2.7461,-4.24e-4 2.43978,2.712146 l -2.01765,17.41147 c -0.24869,2.857465 -0.25828,2.846919 2.48338,2.857465 L 165.225,60.5 c 17.5125,0.375 19.575,14.825 18.35,23.375 l -8.03813,44.97617 c -0.41426,2.39883 -0.40705,2.39883 -2.49781,2.39883 l -15.85156,0 c -2.63282,0 -2.64334,0 -2.24309,-2.56019 L 161.275,88.725 c 0.87678,-5.305631 0.0584,-7.86718 -3.7625,-7.8875 l -10.91874,-0.03012 c -2.99503,-0.0211 -2.98378,-0.0037 -3.39459,2.698888 l -6.61538,45.28134 c -0.35805,2.46239 -0.37126,2.46239 -2.80254,2.46239 l -15.71651,0 c -3.37193,0 -3.35879,0 -2.71769,-3.13935 l 3.82256,-18.54631 C 112.51796,123.35816 104.13843,131.47536 89.579267,131.25 L 77,131.25 c -3.699988,0 -3.65936,0 -4.117021,2.48286 l -3.745523,18.95097 c -0.714883,2.94898 -0.72794,2.94117 -3.707982,2.94117 l -14.4073,0 c -3.092521,0.008 -3.081125,0.008 -2.602622,-3.00149 L 62.259239,63.418644 c 0.447053,-3.012394 0.489632,-3.012394 3.833148,-2.984924 l 31.438863,0 c 15.20168,0 25.1936,10.486383 25.29375,20.72878 l 6.61215,-41.095028 c 0.42514,-2.645592 0.44026,-2.645592 3.28061,-2.64641 z" />
  <path
    fill="hsl(0,0%,0%)"
    d="m 132.4,40.2 15.11386,-0.075 -3.00136,23.35811 21.31808,0 c 17.52444,0.405135 15.21597,20.579525 14.17913,25.896075 L 173.5,128.75 l -16.21161,0 L 164.05,86.0625 C 164.44063,83.240625 164.075,78.53125 159,78.4 l -17.3,0 -7.4,50.35 -15.83483,0 C 118.52457,128.758 132.4,40.2 132.4,40.2 z" />
  <path
     fill="hsl(197.8,100%,27.1%)"
     d="M288.2 57.9C286.3 52.5 288.1 45.7 293.1 42.7 303.3 40.3 312.3 47.2 319.3 53.6 321.8 56.4 325.7 55.2 328.9 55.8 335.8 57 342.5 59.6 347.8 64.1 360.7 73.6 371.9 85.3 380.2 98.9 384.3 105.8 388.5 112.7 390.9 120.3 394.9 133.1 400.2 145.4 405.2 157.9 406.2 160 407 162.5 409.2 163.7 414.5 166.7 420.3 169.1 425.1 172.9 429.4 176.2 433.2 180.1 437.2 183.8 441.5 187.9 446 192.4 448 198.2 440.1 201.1 431.5 201.1 423.8 204.5 425.7 209.5 430.7 212.2 434.7 215.4 441.5 220.3 446.2 227.3 451.2 233.9 452.3 235.4 452.6 237.2 453.2 238.9 447.6 233.8 442.3 228.2 435.4 224.8 426 219.5 415.9 211.8 414.1 200.4 422 195.7 431.2 194 440.3 194.4 438.5 190.5 434.6 188.4 431.4 185.7 426.4 181.6 421.8 176.9 415.8 174.6 411.6 172.6 407 171.6 403.2 168.8 400.1 165.7 398.8 161.2 397 157.2 392.5 145.1 387.5 133.1 383.5 120.8 374.1 98.5 358.5 77.8 336.9 66.1 331.3 62.8 324.7 62.8 318.4 62.3 314.9 60.4 312.5 56.9 309 54.8 304.4 52.1 299.5 48.4 293.8 49.5 291.5 53.8 293.9 58.2 296.2 62 299 66.5 302 70.9 304.3 75.7 309.5 86.9 309.8 99.9 316.6 110.5 318.2 113.2 321.1 115.6 320.8 119.1 320.6 125.6 317.1 131.5 316.6 138 315.9 149.6 315.6 161.8 320.6 172.6 321.5 174.8 323.4 176.4 325.1 178 326.8 171.4 326.1 164.5 328.2 158 329.4 154 331.9 150.5 334.2 147.1 340.6 166.5 348.7 185.9 362 201.7 355.3 195.5 349 188.8 343.4 181.6 339.2 176.4 337.4 169.9 334.6 164 332.1 170.5 334.6 179.1 328.8 184.2 325.5 185.6 321.7 184.2 319.8 181.3 312.8 171.8 311 159.5 311.3 148 310.9 138.2 313.4 128.6 315.8 119.1 307.4 108.3 304.8 94.5 301.1 81.7 298 73.1 291.1 66.6 288.2 57.9Z" />
  <path
     fill="hsl(0,0%,100%)"
     d="m 191.78061,60.403697 31.25064,-0.0287 c 8.6,-0.1 17.46875,3.925 22.06875,11.425 3.4375,5.5 4.725,13.5875 4.5875,18.3625 -0.3125,19.075 -13.77601,41.0875 -33.50784,41.0875 l -12.5771,0 c -3.97675,0 -3.98619,0 -4.63179,3.23276 l -3.60133,18.14181 c -0.49714,3.00824 -0.44167,3.00824 -3.94238,3.00824 l -15.24699,0 c -2.75282,0 -2.74596,0 -2.25587,-3.00315 L 188.5021,63.452036 C 189,60.40625 189,60.40625 191.78061,60.403697 z" />
   <path
    fill="hsl(225,34.5%,56.9%)"
     d="m 209.76605,80.681173 7.01643,0.01172 c 9.19619,0.03111 11.5988,2.515417 11.57107,11.841941 0.005,8.778496 -4.10035,19.382686 -17.7066,19.293596 l -7.15424,0.0397 c -1.54694,-0.004 -1.54694,-0.004 -1.27304,-1.70039 l 4.56229,-27.373737 c 0.35131,-2.10942 0.35131,-2.10942 2.98409,-2.11283 z" />
  <path
     fill="hsl(0,0%,0%)"
     d="M 65.5,63.4 98,63.5 c 19.04196,1.559026 22.76454,15.343454 22.71161,26.843146 C 120.79343,107.20883 107.01574,128.75 90.934486,128.75 l -19.732233,0 -4.974525,23.87276 -15.127728,0 C 55.489423,121.58931 65.5,63.4 65.5,63.4 z" />
  <path
     fill="hsl(197.8,100%,27.1%)"
     d="m 320.9,76.5 c 1.50625,-0.7 3.11875,-1.325 4.8,-0.4 4.3,2.6 5.4,9 1.5,12.5 -1.7,-4.2 -3.9,-8.2 -6.3,-12.1 z" />
  <path
    fill="hsl(0,0%,100%)"
     d="m 73.3,114.6 6.2,-37.1 14.692893,-0.05355 c 6.583587,-0.108075 11.971147,2.226159 11.965867,13.196 -0.17193,10.4499 -3.36967,24.08633 -21.051148,24.14404 z" />
  <path
     fill="hsl(0,0%,0%)"
     d="m 191.15625,63.46875 32.5,0.1 c 19.04196,1.559026 22.76454,15.343454 22.71161,26.843146 0.0818,16.865684 -13.69587,38.406854 -29.77712,38.406854 l -19.73224,0 -4.97452,23.87276 -15.12773,0 c 4.38942,-31.03345 14.4,-89.22276 14.4,-89.22276 z" />
  <path
      fill="hsl(0,0%,100%)"
     d="m 199.2,114.6 c 0,0 5.46066,-37.062757 5.5,-37.1 l 12.11299,-0.05953 c 13.32436,-0.03479 14.28821,5.680745 14.4664,13.852424 0,8.637436 -2.11663,22.800956 -18.33434,23.258756 z" />
  <path
      fill="hsl(225,34.5%,56.9%)"
     d="m 84.031217,80.504396 7.016434,0.01172 c 9.196189,0.03111 11.598799,2.515417 11.571069,11.841941 0.005,8.778493 -4.100351,19.382683 -17.706603,19.293593 l -7.15424,0.0397 c -1.54694,-0.004 -1.54694,-0.004 -1.273037,-1.70039 l 4.562288,-27.373734 c 0.351309,-2.10942 0.351309,-2.10942 2.984089,-2.11283 z" />
  <path
    fill="hsl(225,34.5%,56.9%)"
     d="m 206.55804,82.59709 c 0.34251,-2.071602 0.34251,-2.066181 3.2317,-2.049608 l 8.56051,-0.0082 c 4.925,0.06875 8.68909,-0.09429 8.70781,10.346446 0.0723,12.729122 -6.60781,20.701392 -15.35495,20.789082 l -8.34369,0.0212 c -1.56255,0.008 -1.56255,0.016 -1.21546,-2.12645 1.09281,-6.71137 4.41408,-26.97249 4.41408,-26.97249 z" />
  <path
    fill="hsl(197.8,100%,27.1%)"
     d="m 14.1,215.3 c 4.5,-2.6 10,-2.2 15,-1.8 4.5,1.1 7.4,5.4 8.9,9.6 l 21.9,60 21.8,-59.2 c 1.7,-4.4 4.5,-9 9.3,-10.4 5.7,-0.5 12.5,-0.9 17.1,3.4 2.5,2.3 2.70453,5.9 2.7,9.1 l -0.1,70.6 -14.2,0 -0.2,-69 -22.8,60.3 c -1.06967,2.53223 -3.281011,8.88839 -13.661089,8.79289 -10.668929,0.0602 -11.761212,-6.62419 -12.854757,-8.61499 L 23.7,226.9 l -0.2,69.7 -14.1,0 0,-72.7 c -0.2,-3.4 1.6,-6.9 4.7,-8.6 z" />
  <path
    fill="hsl(197.8,100%,27.1%)"
     d="m 123.5221,239.39802 14.73371,0 L 138.3,279 c -0.4,4 4.1,6.3 7.6,6.4 l 32.73285,0.059 -0.0108,-46.06093 14.8779,0.002 c 0,0 0,63.70159 0,63.7 0.003,12.97645 -7.65583,18.71308 -20.4,18.7 l -49.61953,0.008 0,-12.18828 c 0,0 31.11953,-0.0195 46.51953,-0.11953 6.2375,-0.15 8.62616,-2.76018 8.63285,-9.77992 l 0,-4.15266 c -11.1,0.1 -22.53285,0.13258 -33.63285,0.13258 -7.2,0.1 -14.6,-2.9 -19,-8.6 -1.7,-2.3 -2.7,-5.2 -2.5,-8 z" />
  <path
    fill="hsl(37.4,100%,44.7%)"
     d="m 206.2,226.1 c 2.7,-7.6 11.2,-11.3 18.8,-11.6 0.0125,-0.0375 45.6,0 45.6,0 l 0.1,11.2 -40.7,0.1 c -3.7,0.4 -8.7,0.7 -10,4.8 -0.7,3.7 -0.4,7.6 -0.3,11.3 0,3.3 2.3,6.4 5.5,7.4 10.5,1.3 21.4,-1.3 31.6,1.9 5,1.7 9.8,4.8 12.3,9.6 1.9,3.4 1.2,7.5 1.4,11.2 0,5.1 0.4,10.6 -2.6,14.9 -4.7,6.5 -12.9,10 -20.8,9.7 l -42.49621,0.0171 0.002,-12.03269 L 247.1,284.6 c 4.4,0.1 9.1,-3.9 8.4,-8.5 -0.2,-4.9 1.5,-11.7 -4.1,-14.2 -10.6,-3.5 -22.4,0.8 -33,-3 -6.7,-2 -13.3,-7.5 -13.6,-15 -0.2,-6 -0.6,-12.1 1.4,-17.8 z" />
  <path
    fill="hsl(37.4,100%,44.7%)"
     d="m 287.1,219 c 4.9,-3.3 11,-4.7 16.9,-4.5 0.0188,-0.025 28,0.1 28,0.1 7.3,0.6 15.4,3.4 18.9,10.3 2.3,4 1.7,8.7 1.8,13.1 l -0.2,43.1 c -0.1,5.3 -4.2,9.1 -8.1,12.3 L 357.24927,308.34927 341.2,308.3 l -9.87678,-10.90625 -26.69844,-0.005 C 298.84835,297.40225 293.7,296.7 287.3,292.5 c -5.1,-3.2 -7.7,-9.5 -7.7,-15.4 0,-14.4 0,-28.8 0,-43.2 -0.1,-5.8 2.6,-11.6 7.5,-14.9 z" />
  <path
     fill="hsl(0,0%,100%)"
     d="m 295.5,235.9 c -0.22908,-4.85817 4.4,-9.6 9.4,-9.4 l 25.1,0 c 5,-0.1 9.5,4.4 9.3,9.4 0.1,12.7 -0.1,25.4 0,38.2 0.0202,5.88917 -1.37091,9.39123 -3.86374,9 L 325.01872,271.8 307.8,271.6 l 11.4,13.7 -14.34861,0.0801 C 299.57131,285.66932 295.37092,280.47525 295.5,274.1 z" />
  <path
    fill="hsl(37.4,100%,44.7%)"
     d="m 362.4,214.5 14.34985,-2.9e-4 L 376.7,273 c 0,2.5 0.1,5 1,7.3 1.7,3.4 5.8,4.4 9.2,4.3 l 40.5,0 -0.004,11.99743 c 0,0 -40.54161,0.0247 -40.4961,0.003 -7.3,-0.4 -15.5,-2.1 -20.5,-8 -2.8,-3.1 -4.2,-7.4 -4,-11.5 z" />
  <path
    fill="hsl(37.4,100%,44.7%)"
     d="m 434.87067,284.59375 c 0,-7.3125 4.34808,-12.22688 10.28558,-12.22688 5.84375,0 10.375,4.91438 10.3089,12.22688 0.0661,8.09375 -4.4964,12.12412 -10.3089,12.12412 -5.90625,0 -10.28558,-4.03037 -10.28558,-12.12412 z"/>
  <path
    fill="hsl(0,0%,100%)"
     d="m 445.15625,274.1875 c 4.45823,0 8.40625,4.59417 8.40625,10.40625 0,4.50723 -2.5625,10.09375 -8.40625,10.09375 -5.9375,0 -8.46875,-4.6625 -8.46875,-10.09375 0,-4.78125 3.8875,-10.40625 8.46875,-10.40625 z"/>
  <path
    fill="hsl(37.4,100%,44.7%)"
     d="m 440.8875,277.28125 4.26875,0 c 1.65732,0 4.83939,-0.0625 4.88125,3.50625 0.0687,2.60625 -0.65625,3.80625 -2.26875,4.49375 l 2.2125,7.0625 -2.05852,0 -2.29773,-7.09375 -2.56875,0.0625 -0.0875,7.03125 -2.07719,-0.0281 z" />
  <path
     fill="hsl(0,0%,100%)"
     d="m 443.2,279.3 2.4625,0.0437 c 1.75,-0.0299 2.25961,1.08687 2.2874,1.80258 0.0344,0.88663 -0.46058,2.02998 -1.9374,2.12867 l -2.85625,0.0125 z" />
</svg>
