<?xml version="1.0" standalone="no"?>
<!DOCTYPE svg PUBLIC "-//W3C//DTD SVG 1.1//EN" "http://www.w3.org/Graphics/SVG/1.1/DTD/svg11.dtd">
<svg xmlns="http://www.w3.org/2000/svg" viewbox="0 0 710 235" width="710" height="235">
  <path fill="hsl(0,0%,100%)" d="m 33.756694,232.11334 c -11.23827,-3.13427 -17.49467,-9.37544 -21.00115,-20.95004 -0.79587,-2.6271 -1.43494,-16.69933 -1.86197,-41 -0.62892,-35.78987 -0.72377,-37.14001 -2.9001897,-41.28079 -2.74852,-5.22928 -2.76303,-5.70618 -0.25,-8.21921 2.5823597,-2.58235 2.5301697,-4.80676 -0.18046,-7.69209 l -2.18046,-2.321 2.43046,-4.24345 c 2.4087997,-4.20563 2.4364097,-4.55996 3.0976497,-39.74346 0.4902,-26.08229 1.04663,-36.82644 2.09749,-40.5 4.6704,-16.32669 13.76577,-23.3618301 31.39549,-24.2839801 7.37057,-0.38553 10.91699,-0.0388 17.94802,1.75452 7.40334,1.88834 9.35873,2.05634 12.60698,1.08314 3.37297,-1.01057 4.15332,-0.90899 6.36166,0.82809 1.3844,1.08897 3.88675,2.28077 5.56078,2.6484501 2.54649,0.55931 2.93618,1.01982 2.38553,2.81914 -2.12946,6.95836 -2.47353,11.04312 -2.45539,29.15064 0.0149,14.85488 0.39076,21.02902 1.46109,24 0.79258,2.2 1.44783,4.29736 1.45611,4.66079 0.008,0.36344 -1.94074,1.60758 -4.33115,2.76476 -5.21006,2.52215 -6.74094,5.37613 -7.54955,14.07445 -0.56728,6.10234 -0.75694,6.5 -3.10003,6.5 -2.28998,0 -2.55534,-0.47675 -3.21795,-5.78133 -1.02507,-8.20625 -3.31297,-12.43657 -8.02669,-14.84133 -4.3636,-2.22614 -4.22714,-1.20322 -1.78029,-13.34525 0.71676,-3.55681 1.06489,-11.57143 0.86168,-19.83765 -0.33868,-13.7769 -0.35975,-13.88589 -3.14673,-16.28209 -3.60958,-3.10346 -8.06326,-3.13423 -11.12065,-0.0768 -2.31527,2.31527 -2.34198,2.61163 -3.08226,34.19853 -0.81522,34.78474 -0.0489,45.83583 3.51397,50.67547 2.48539,3.37602 2.48483,4.03696 -0.005,6.29049 -2.60176,2.35456 -2.53689,5.29961 0.18046,8.19209 l 2.18047,2.321 -2.20901,3.93039 c -3.42629,6.09626 -4.28922,17.54127 -3.95552,52.46146 l 0.3036,31.77073 2.80577,2.41216 c 3.58545,3.08248 7.80269,3.08264 11.38847,4.5e-4 l 2.80576,-2.41172 0.3325,-17.58119 c 0.29779,-15.74605 -0.15018,-21.14258 -2.34278,-28.22263 -0.54086,-1.74649 0.016,-2.46246 3.11122,-4 5.72909,-2.84592 7.35249,-5.80382 8.17649,-14.89795 0.63464,-7.00431 0.96079,-7.97479 2.68007,-7.97479 1.67276,0 2.13273,1.13335 3.16219,7.79152 1.42527,9.21807 3.00716,11.9673 8.49762,14.76832 3.65293,1.86359 4.01498,2.37053 3.40151,4.76287 -0.37759,1.47251 -0.99934,12.35229 -1.38166,24.17729 -0.62621,19.36864 -0.92061,21.99566 -2.96975,26.5 -3.06731,6.74242 -6.21115,9.79156 -13.51609,13.10892 -5.56183,2.52578 -7.39712,2.82117 -19.15132,3.0824 -9.37274,0.2083 -14.53089,-0.13804 -18.48669,-1.24128 z m 85.356716,-0.42141 c -9.11763,-3.24405 -15.99705,-8.66468 -19.70765,-15.52863 -2.085366,-3.85756 -2.180176,-5.4066 -2.662376,-43.5 l -0.5,-39.5 -2.97351,-5.19763 -2.97351,-5.19763 2.22351,-2.36682 c 2.76399,-2.94214 2.76463,-3.53302 0.007,-6.46841 -1.822,-1.93944 -2.00226,-2.66289 -1.01272,-4.06445 4.8608,-6.88476 4.69994,-5.47879 5.22923,-45.70506 0.49011,-37.24822 0.54665,-38.10315 2.857556,-43.21376 2.81537,-6.22625 10.35563,-13.5966601 16.92522,-16.5440101 5.47644,-2.45692 13.92022,-2.75678 21.93109,-0.77884 4.51536,1.11488 6.21102,1.05251 12.65706,-0.46551 8.60481,-2.0264 13.72155,-1.57327 21.13594,1.87176 6.91662,3.2137501 10.9359,6.8619801 13.66523,12.4037001 2.28681,4.6432 2.33674,5.41529 2.82791,43.72666 0.52971,41.31742 0.36089,39.80962 5.22926,46.70506 0.98954,1.40156 0.80928,2.12501 -1.01272,4.06445 -2.7505,2.92777 -2.82532,5.33336 -0.21654,6.96256 2.36433,1.47655 2.55666,3.49535 0.54479,5.71844 -3.67088,4.05628 -4.54479,12.44447 -4.54479,43.6231 0,16.58438 -0.45344,32.54441 -1.00765,35.46674 -2.38422,12.57194 -9.35991,21.85303 -20.32291,27.03942 -7.08307,3.35087 -9.83293,3.56155 -16.78917,1.28628 -5.33461,-1.74487 -15.23272,-1.4136 -17.22272,0.5764 -1.58665,1.58665 -8.50308,1.14428 -14.28753,-0.91382 z m 31.02673,-17.97954 c 2.0385,-2.03716 2.11274,-3.10925 2.41166,-34.82548 0.32956,-34.96753 -0.50516,-46.34959 -3.80988,-51.95067 -2.52058,-4.27207 -2.50131,-5.10886 0.18348,-7.96668 l 2.182,-2.32263 -2.23819,-3.02731 -2.23818,-3.02731 2.80618,-5.71451 2.80618,-5.7145 0,-38.337 0,-38.33701 -2.36078,-1.91299 c -3.2139,-2.6043 -11.06495,-2.6041 -14.27844,3.7e-4 l -2.36078,1.91337 0,38.33663 0,38.33663 2.86157,5.82771 2.86156,5.8277 -2.11156,1.479 c -2.66507,1.86669 -2.717,5.76016 -0.11157,8.36559 2.3526,2.3526 2.54595,4.30202 0.58786,5.92708 -3.42097,2.83916 -4.08786,10.69727 -4.08786,48.16829 0,39.08785 -0.0282,38.85462 4.96528,41.00428 3.1903,1.37339 9.60913,0.27024 11.93147,-2.05056 z m 58.78189,17.97934 c -1.27674,-1.08052 -3.86424,-2.25402 -5.75,-2.60779 -4.07554,-0.76458 -4.15521,-1.46806 -1.91637,-16.92064 0.79686,-5.5 1.45759,-10.3375 1.46829,-10.75 0.0107,-0.4125 1.14444,-0.75 2.51944,-0.75 2.37504,0 2.50077,0.28742 2.51531,5.75 0.008,3.1625 0.45842,6.425 1,7.25 2.61928,3.99001 3.04207,-2.12485 2.76566,-40 l -0.28097,-38.5 -2.91046,-5.74395 c -2.72919,-5.38622 -2.80704,-5.85823 -1.25,-7.57874 2.06576,-2.28264 2.13848,-5.5357 0.16046,-7.17731 -2.03715,-1.69068 -1.88534,-3.55978 0.55747,-6.86387 3.28891,-4.44848 3.99239,-14.15029 3.7079,-51.13613 -0.22985,-29.88206 -0.46615,-34.5 -1.76537,-34.5 -1.14158,0 -1.57114,1.49343 -1.79772,6.25 -0.28041,5.88663 -0.44029,6.25 -2.75,6.25 -1.34875,0 -2.45705,-0.3375 -2.46287,-0.75 -0.006,-0.4125 -0.90341,-6.53438 -1.99463,-13.60418 -1.09123,-7.0698 -1.76643,-13.2062801 -1.50046,-13.6366401 0.26598,-0.43035 2.17606,-1.09574 4.24463,-1.47864 2.06858,-0.38291 5.23418,-1.39024 7.03467,-2.23852 2.97954,-1.40377 3.82623,-1.38726 9.42538,0.18378 5.79108,1.62489 6.517,1.62723 12.38134,0.0398 5.91378,-1.60078 6.36772,-1.59576 8.95435,0.0991 1.49861,0.98194 4.56978,2.03283 6.82481,2.33533 l 4.10006,0.54999 12.68745,51.0000001 12.68744,51 0.0828,-42.69098 c 0.0503,-25.97376 -0.28919,-42.92086 -0.86708,-43.27801 -1.53402,-0.94808 -3.05017,2.9804 -3.05017,7.90325 0,4.19411 -0.20194,4.56574 -2.48095,4.56574 -1.76489,0 -2.61856,-0.6494 -2.95774,-2.25 -1.15842,-5.46663 -3.39952,-25.2027601 -2.94531,-25.9376901 0.27612,-0.44677 1.4584,-0.81231 2.62729,-0.81231 1.16889,0 4.09421,-0.95315 6.50069,-2.11811 4.25784,-2.06118 4.52055,-2.07246 9.77508,-0.41971 2.96981,0.93412 6.43044,1.42151 7.6903,1.0831 1.25985,-0.33841 3.97629,-1.12096 6.03653,-1.73899 3.14332,-0.94294 4.03862,-0.85878 5.56562,0.52313 1.00085,0.90575 3.29137,1.94116 5.09006,2.30089 1.79868,0.35974 3.47278,1.18164 3.72022,1.82646 0.68739,1.7913301 -2.48684,25.8082701 -3.55173,26.8731701 -2.13127,2.13127 -3.96287,-0.24209 -4.26599,-5.52781 -0.2243,-3.9112 -0.69757,-5.30213 -1.80407,-5.30213 -1.29744,0 -1.53734,4.45621 -1.77648,33 -0.32661,38.98209 0.42817,45.74816 6.00638,53.84315 1.08828,1.5793 0.94801,2.062 -0.9799,3.37197 -2.78672,1.89352 -2.89893,5.38763 -0.25,7.78488 2.11199,1.91132 2.58601,4.46526 1.12292,6.05 -1.655,1.7926 -4.0558,10.95601 -5.08899,19.42377 -0.56866,4.66057 -1.03393,16.85093 -1.03393,27.08969 0,10.23876 -0.29467,26.75105 -0.65483,36.69399 l -0.65483,18.07806 -3.59517,0.64691 c -1.97734,0.3558 -5.51786,1.56289 -7.86782,2.68242 -3.98905,1.9004 -4.43658,1.92809 -6.74243,0.41724 -1.35838,-0.89005 -4.51047,-1.89797 -7.00465,-2.23984 -2.49418,-0.34186 -4.73493,-0.94527 -4.97944,-1.34091 -0.24452,-0.39563 -4.50974,-20.34748 -9.47828,-44.33745 -8.94956,-43.21188 -11.37159,-52.2323 -15.0976,-56.22833 -2.21805,-2.37879 -2.40084,-4.29697 -0.75393,-7.91155 0.99876,-2.19204 0.84994,-3.00437 -1.01165,-5.52231 -1.8064,-2.44329 -2.09346,-3.86148 -1.66524,-8.22695 0.33533,-3.41853 -0.32696,-9.67356 -1.88202,-17.77474 l -2.39942,-12.5 -0.10635,13.22976 c -0.0817,10.1605 0.27687,14.18751 1.54546,17.35802 1.53573,3.83818 1.53573,4.32474 0,6.92453 -2.10349,3.56093 -2.08999,5.84602 0.0485,8.20905 1.51618,1.67536 1.54715,2.22539 0.28595,5.07874 -1.12741,2.55065 -1.48259,11.77234 -1.75056,45.4499 -0.31071,39.04829 0.0645,46.12189 2.15729,40.66821 0.33385,-0.86998 0.60699,-4.01998 0.60699,-7 0,-4.69663 0.25849,-5.41821 1.94098,-5.41821 1.06754,0 2.2124,0.43916 2.54413,0.9759 0.53335,0.86299 3.51489,22.59945 3.51489,25.6248 0,0.6472 -1.6875,1.4806 -3.75,1.85201 -2.0625,0.37141 -5.45679,1.54932 -7.54287,2.61758 -3.60553,1.84636 -4.03826,1.86203 -8.76124,0.31722 -4.9939,-1.63342 -5.04269,-1.62992 -14.44589,1.03803 -1.21336,0.34427 -2.91303,-0.20524 -4.32136,-1.39711 z m 27.42553,-161.7576 c -0.3323,-0.33229 -0.56864,0.25834 -0.52522,1.3125 0.048,1.16495 0.28494,1.4019 0.60416,0.60417 0.28887,-0.72188 0.25335,-1.58438 -0.0789,-1.91667 z M 343.7815,231.05167 c -2.45404,-1.3136 -5.49154,-2.38837 -6.75,-2.38837 -2.79039,0 -2.7967,-0.29805 -0.26751,-12.63992 2.73282,-13.33551 2.74302,-13.36008 5.54679,-13.36008 2.25247,0 2.43261,0.37027 2.43261,5 0,2.86787 0.45382,5 1.06424,5 0.73997,0 0.95589,-11.65469 0.70864,-38.25 -0.36237,-38.97791 -0.69494,-42.50586 -4.41448,-46.82874 -1.79285,-2.08367 -1.72631,-4.5661 0.1416,-5.28289 0.825,-0.31658 1.5,-1.65962 1.5,-2.98454 0,-1.32492 -0.675,-2.96914 -1.5,-3.65383 -2.0111,-1.66906 -1.88908,-3.53848 0.44322,-6.79049 1.06878,-1.49023 2.41878,-5.37966 3,-8.64317 1.40417,-7.88423 1.42288,-76.01376 0.0216,-78.63208 -1.28298,-2.39727 -6.47768,-2.64611 -7.35783,-0.35247 -0.33385,0.86998 -0.60699,10.33443 -0.60699,21.03212 0,15.02695 0.34113,20.26676 1.5,23.04033 0.825,1.97451 1.5,3.73899 1.5,3.92109 0,0.18209 -1.98705,1.21005 -4.41566,2.28434 -5.85832,2.59141 -7.6753,5.67631 -8.94972,15.19496 -0.95342,7.12107 -1.28584,7.94537 -3.20416,7.94537 -1.92523,0 -2.19874,-0.6961 -2.72095,-6.92499 -0.31931,-3.80874 -1.27559,-8.26901 -2.12506,-9.9117 -1.7592,-3.40192 -6.1363,-7.16331 -8.33589,-7.16331 -1.5916,0 -1.55873,-0.27363 1.19707,-9.96793 1.21203,-4.26366 1.55437,-10.78834 1.55437,-29.625 l 0,-24.1570701 3.08416,-0.61683 c 1.69628,-0.33926 4.38884,-1.54585 5.98346,-2.68132 2.82606,-2.01233 3.03599,-2.02139 8.31072,-0.35868 5.05197,1.59249 5.74641,1.59623 10.45446,0.0563 4.64939,-1.52074 5.57477,-1.52476 11.85512,-0.0515 7.16263,1.68018 18.7483,1.3336 24.12061,-0.72155 2.03351,-0.77791 4.07128,-0.6133 8.33576,0.67333 5.34502,1.61264 5.94231,1.60919 11.26484,-0.0649 5.33737,-1.6788 5.71723,-1.68038 7.53951,-0.0312 1.05543,0.95515 3.63626,2.32635 5.73516,3.04709 l 3.8162,1.31046 0.5,27.3915201 c 0.43556,23.86144 0.72553,27.73534 2.25,30.05929 2.47411,3.77161 2.2516,4.44157 -2.23538,6.73066 -5.46892,2.79004 -7.08491,5.70919 -8.31399,15.01862 -0.97564,7.38969 -1.22896,7.98884 -3.37768,7.98884 -2.06238,0 -2.32569,-0.47673 -2.3474,-4.25 -0.0599,-10.4214 -3.17581,-16.54227 -9.84272,-19.33525 -2.82886,-1.1851 -3.2561,-1.77065 -2.6724,-3.66268 1.96798,-6.37906 2.45622,-11.72128 2.49602,-27.31094 0.0485,-19.01186 -0.45115,-20.85213 -5.50576,-20.27692 l -2.95069,0.33579 0,42 0,42 2.42297,4.23013 c 2.2761,3.97371 2.32156,4.34218 0.75,6.07874 -2.07955,2.29788 -2.1847,7.05753 -0.17297,7.8295 2.04447,0.78454 1.88979,1.91564 -0.75,5.48444 -2.23497,3.02151 -2.25195,3.31518 -2.54217,43.95951 -0.2594,36.32817 -0.11919,40.91768 1.25,40.91768 1.20263,0 1.54217,-1.21094 1.54217,-5.5 0,-5.44444 0.0303,-5.5 3,-5.5 2.17617,0 3.01031,0.48057 3.03756,1.75 0.0206,0.9625 0.62842,6.475 1.35058,12.25 1.43329,11.46166 1.27288,13 -1.35558,13 -0.96441,0 -3.47794,1.17026 -5.58563,2.60058 -3.37544,2.29063 -4.25614,2.47777 -7.38955,1.57018 -8.75161,-2.53491 -14.62429,-2.49425 -27.55738,0.19077 -1.1,0.22837 -4.00785,-0.65955 -6.46189,-1.97316 z m 66.98614,1.14085 c -0.67135,-0.80893 -2.8055,-2.04387 -4.74255,-2.74432 l -3.52191,-1.27354 0.68253,-10.00568 c 0.95038,-13.93227 1.69112,-17.00568 4.09868,-17.00568 1.67211,0 2.03222,0.87867 2.459,6 0.37037,4.44444 0.88889,6 2,6 1.23982,0 2.0671,-5.89752 4.76942,-34 3.47424,-36.13 3.67423,-47.64777 0.90083,-51.8805 -2.1433,-3.2711 -2.10192,-4.25526 0.30774,-7.31864 1.61068,-2.04765 1.76858,-2.91258 0.85029,-4.65773 -0.62023,-1.17872 -1.62282,-2.46782 -2.22798,-2.86466 -0.78595,-0.5154 -0.73907,-1.22963 0.16412,-2.5 4.00619,-5.63491 5.4098,-8.25157 6.6692,-12.43305 0.77105,-2.56001 3.51988,-23.71001 6.10851,-47 3.74976,-33.73657 5.02515,-42.5487201 6.27346,-43.3454201 0.86176,-0.55 2.60269,-1.98894 3.86872,-3.19764 2.26287,-2.1604 2.42488,-2.17174 9.55879,-0.66925 7.30733,1.53902 14.10229,1.30011 20.41442,-0.71777 2.74739,-0.87829 3.46915,-0.69776 5.55681,1.3899 1.31962,1.31962 2.94292,2.58051 3.60733,2.80198 0.81763,0.27254 2.6561,13.8128201 5.6888,41.8977301 5.59802,51.84164 6.41834,56.0601 11.521,59.24677 2.52692,1.57809 2.51353,3.92684 -0.0315,5.51621 -2.60169,1.62478 -2.53532,4.03334 0.19111,6.9355 2.15467,2.29354 2.16264,2.41153 0.47907,7.09337 -0.94162,2.61857 -1.9428,6.99803 -2.22483,9.73212 -0.5199,5.03993 5.77136,75.02112 6.84045,76.09021 1.50075,1.50075 2.7142,-1.23496 2.7142,-6.11913 0,-5.65287 0.84733,-7.00062 3.81012,-6.06026 1.4652,0.46503 2.10758,2.85763 3.52051,13.11238 0.95055,6.89895 1.46347,12.97202 1.13981,13.49571 -0.32366,0.52369 -1.2584,0.95217 -2.07721,0.95217 -0.8188,0 -2.57037,1.16712 -3.89239,2.59359 -2.26862,2.44789 -2.61705,2.52257 -6.20225,1.32937 -5.12792,-1.70664 -18.71599,-1.73758 -24.50286,-0.0558 -4.19359,1.21874 -4.88323,1.1882 -6.35275,-0.28132 -0.90666,-0.90666 -3.62724,-2.17772 -6.04573,-2.82456 l -4.39721,-1.17609 -0.19444,-9.79259 c -0.10695,-5.38593 -0.21945,-11.2551 -0.25,-13.0426 -0.048,-2.8101 0.28096,-3.25 2.43067,-3.25 2.2474,0 2.56136,0.52209 3.26841,5.43508 0.4302,2.98929 0.9989,5.65179 1.26377,5.91666 0.75027,0.75027 0.52463,-4.15393 -0.90995,-19.7776 -1.62016,-17.6448 -1.93154,-18.07414 -13.10846,-18.07414 -10.99464,0 -11.01576,0.033 -12.80919,20 -1.33219,14.83196 -1.08939,19.73191 0.88019,17.76234 0.33238,-0.33239 0.85238,-3.33989 1.15555,-6.68334 0.50672,-5.58812 0.7441,-6.079 2.9398,-6.079 l 2.38856,0 -0.27745,14.1793 -0.27746,14.1793 -2.85745,0.76295 c -1.5716,0.41963 -3.71093,1.53534 -4.75406,2.47937 -1.51375,1.36992 -2.37415,1.49883 -4.26224,0.63856 -4.65307,-2.12008 -10.9708,-2.4561 -15.63668,-0.83165 -5.52451,1.92338 -5.47058,1.92244 -6.96532,0.12139 z M 457.49011,148.995 c 1.49389,-2.04301 1.55677,-5.30403 0.21449,-11.12311 -1.24086,-5.37942 -4.87234,-13.20859 -6.12666,-13.20859 -1.85136,0 -6.083,11.22606 -6.58391,17.46636 -0.45908,5.71914 -0.30136,6.38825 1.87405,7.95048 2.87847,2.06713 8.7561,1.46668 10.62203,-1.08514 z m -3.69713,-28.89145 c 1.56936,-1.89097 0.14404,-6.94025 -1.95912,-6.94025 -1.87869,0 -3.00467,3.53171 -1.99262,6.25 0.98368,2.64208 2.16117,2.84775 3.95174,0.69025 z m -0.72385,-17.5428 c 0.52652,-4.44565 -0.99625,-37.90129 -1.75987,-38.66492 -0.38355,-0.38354 -1.98369,29.36135 -1.81654,33.76747 0.19739,5.20336 1.23188,10 2.15669,10 0.44847,0 1.08734,-2.29615 1.41972,-5.10255 z m 87.68756,129.55259 c -11.23826,-3.13427 -17.49466,-9.37544 -21.00114,-20.95004 -0.79587,-2.6271 -1.43495,-16.69933 -1.86197,-41 -0.62892,-35.78987 -0.72378,-37.14001 -2.90019,-41.28079 -2.74853,-5.22928 -2.76303,-5.70618 -0.25,-8.21921 2.58235,-2.58235 2.53017,-4.80676 -0.18046,-7.69209 l -2.18047,-2.321 2.43047,-4.24345 c 2.40879,-4.20563 2.43641,-4.55996 3.09765,-39.74346 0.49019,-26.08229 1.04663,-36.82644 2.09748,-40.5 4.67041,-16.32669 13.76578,-23.3618301 31.39549,-24.2839801 7.37057,-0.38553 10.917,-0.0388 17.94802,1.75452 7.40335,1.88834 9.35873,2.05634 12.60699,1.08314 3.37297,-1.01057 4.15332,-0.90899 6.36165,0.82809 1.38441,1.08897 3.88676,2.28077 5.56079,2.6484501 2.54649,0.55931 2.93617,1.01982 2.38553,2.81914 -2.12182,6.93336 -2.47768,10.95947 -2.49928,28.27564 -0.0236,18.94755 0.48759,25.375 2.01828,25.375 1.93331,0 2.95786,-11.75067 2.95786,-33.92422 l 0,-23.8257801 3.08416,-0.61683 c 1.69628,-0.33926 4.38884,-1.54585 5.98346,-2.68132 2.82606,-2.01233 3.03599,-2.02139 8.31072,-0.35868 5.05197,1.59249 5.74641,1.59623 10.45446,0.0563 4.64939,-1.52074 5.57477,-1.52476 11.85512,-0.0515 7.16263,1.68018 18.7483,1.3336 24.12061,-0.72155 2.03351,-0.77791 4.07128,-0.6133 8.33576,0.67333 5.34502,1.61264 5.94231,1.60919 11.26484,-0.0649 5.33737,-1.6788 5.71723,-1.68038 7.53951,-0.0312 1.05543,0.95515 3.63626,2.32635 5.73516,3.04709 l 3.8162,1.31046 0.5,27.3915201 c 0.43556,23.86144 0.72553,27.73534 2.25,30.05929 2.47411,3.77161 2.2516,4.44157 -2.23538,6.73066 -5.46892,2.79004 -7.08491,5.70919 -8.31399,15.01862 -0.97564,7.38969 -1.22896,7.98884 -3.37768,7.98884 -2.06238,0 -2.32569,-0.47673 -2.3474,-4.25 -0.0599,-10.4214 -3.17581,-16.54227 -9.84272,-19.33525 -2.82886,-1.1851 -3.2561,-1.77065 -2.6724,-3.66268 1.96798,-6.37906 2.45622,-11.72128 2.49602,-27.31094 0.0485,-19.01186 -0.45115,-20.85213 -5.50576,-20.27692 l -2.95069,0.33579 0,42 0,42 2.42297,4.23013 c 2.2761,3.97371 2.32156,4.34218 0.75,6.07874 -2.07955,2.29788 -2.1847,7.05753 -0.17297,7.8295 2.04447,0.78454 1.88979,1.91564 -0.75,5.48444 -2.23497,3.02151 -2.25195,3.31518 -2.54217,43.95951 -0.2594,36.32817 -0.11919,40.91768 1.25,40.91768 1.20263,0 1.54217,-1.21094 1.54217,-5.5 0,-5.44444 0.0303,-5.5 3,-5.5 2.17617,0 3.01031,0.48057 3.03756,1.75 0.0207,0.9625 0.62842,6.475 1.35058,12.25 1.43329,11.46166 1.27288,13 -1.35558,13 -0.96441,0 -3.46642,1.16244 -5.56003,2.5832 -3.61759,2.45497 -4.03406,2.51821 -8.38954,1.27408 -5.70943,-1.63089 -19.41745,-1.6717 -24.08299,-0.0717 -3.11769,1.06918 -4.03736,0.92799 -8.41948,-1.29265 -2.70571,-1.37111 -5.96821,-2.49293 -7.25,-2.49293 -2.83842,0 -2.84502,-0.26921 -0.30992,-12.63992 2.73282,-13.33551 2.74302,-13.36008 5.54679,-13.36008 2.25247,0 2.43261,0.37027 2.43261,5 0,2.86787 0.45382,5 1.06424,5 0.73997,0 0.95589,-11.65469 0.70864,-38.25 -0.36237,-38.97791 -0.69494,-42.50586 -4.41448,-46.82874 -1.79285,-2.08367 -1.72631,-4.5661 0.1416,-5.28289 0.825,-0.31658 1.5,-1.65962 1.5,-2.98454 0,-1.32492 -0.675,-2.96914 -1.5,-3.65383 -2.0111,-1.66906 -1.88908,-3.53848 0.44322,-6.79049 1.06878,-1.49023 2.41878,-5.37966 3,-8.64317 1.40417,-7.88423 1.42288,-76.01376 0.0216,-78.63208 -1.28298,-2.39727 -6.47768,-2.64611 -7.35783,-0.35247 -0.33385,0.86998 -0.60699,10.33443 -0.60699,21.03212 0,15.02695 0.34113,20.26676 1.5,23.04033 0.825,1.97451 1.5,3.73899 1.5,3.92109 0,0.18209 -1.98705,1.21005 -4.41566,2.28434 -5.85832,2.59141 -7.6753,5.67631 -8.94972,15.19496 -0.95342,7.12107 -1.28584,7.94537 -3.20416,7.94537 -1.92523,0 -2.19874,-0.6961 -2.72095,-6.92499 -0.64983,-7.75112 -2.40085,-11.90046 -6.32439,-14.98671 -3.20723,-2.52281 -5.65445,-2.63299 -9.39562,-0.42303 -3.71447,2.19419 -5.15251,5.45249 -5.88525,13.33473 -0.56728,6.10234 -0.75694,6.5 -3.10004,6.5 -2.28997,0 -2.55534,-0.47675 -3.21795,-5.78133 -1.02507,-8.20625 -3.31297,-12.43657 -8.02669,-14.84133 -4.36359,-2.22614 -4.22713,-1.20322 -1.78029,-13.34525 0.71677,-3.55681 1.0649,-11.57143 0.86168,-19.83765 -0.33868,-13.7769 -0.35974,-13.88589 -3.14672,-16.28209 -3.60958,-3.10346 -8.06327,-3.13423 -11.12065,-0.0768 -2.31527,2.31527 -2.34198,2.61163 -3.08226,34.19853 -0.81522,34.78474 -0.0489,45.83583 3.51397,50.67547 2.48538,3.37602 2.48483,4.03696 -0.005,6.29049 -2.60176,2.35456 -2.53689,5.29961 0.18046,8.19209 l 2.18047,2.321 -2.20901,3.93039 c -3.42629,6.09626 -4.28922,17.54127 -3.95552,52.46146 l 0.3036,31.77073 2.80576,2.41216 c 3.58545,3.08248 7.80269,3.08264 11.38848,4.5e-4 l 2.80576,-2.41172 0.3325,-17.58119 c 0.29779,-15.74605 -0.15018,-21.14258 -2.34278,-28.22263 -0.54087,-1.74649 0.016,-2.46246 3.11121,-4 5.7291,-2.84592 7.35249,-5.80382 8.17649,-14.89795 0.63465,-7.00431 0.96079,-7.97479 2.68008,-7.97479 1.67276,0 2.13273,1.13335 3.16219,7.79152 1.42526,9.21807 3.00716,11.9673 8.49761,14.76832 3.65294,1.86359 4.01498,2.37053 3.40152,4.76287 -0.3776,1.47251 -0.99934,12.35229 -1.38166,24.17729 -0.62621,19.36864 -0.92061,21.99566 -2.96976,26.5 -3.0673,6.74242 -6.21114,9.79156 -13.51608,13.10892 -5.56183,2.52578 -7.39712,2.82117 -19.15132,3.0824 -9.37275,0.2083 -14.53089,-0.13804 -18.4867,-1.24128 z"/>
</svg>
