<?xml version="1.0" standalone="no"?>
<!DOCTYPE svg PUBLIC "-//W3C//DTD SVG 1.1//EN" "http://www.w3.org/Graphics/SVG/1.1/DTD/svg11.dtd">
<svg xmlns="http://www.w3.org/2000/svg" width="915" height="235">
  <path fill="hsl(0,0%,100%)" d="m 17.534418,230.8748 c -1.6499,-1.01684 -4.837962,-2.32366 -7.084583,-2.90405 L 6.36507,226.91548 8.656387,214.24259 c 1.260225,-6.97009 2.310869,-12.78539 2.334765,-12.92289 0.0239,-0.1375 0.696975,-0.25 1.495731,-0.25 1.083043,0 1.527976,1.58905 1.75,6.25 0.268696,5.64076 0.520131,6.28155 2.579394,6.5737 l 2.281676,0.3237 -0.281676,-41.99112 c -0.280272,-41.78166 -0.292915,-42.00633 -2.534489,-45.03702 -2.200662,-2.97537 -2.208017,-3.06986 -0.317725,-4.08151 3.106644,-1.66263 3.560491,-4.88378 1.147881,-8.14701 -2.064726,-2.79269 -2.07555,-2.96379 -0.353632,-5.59013 1.616799,-2.46601 1.802526,-6.4313 2.068509,-44.162721 0.188178,-26.694161 -0.06377,-41.809436 -0.707618,-42.453288 -2.088467,-2.088467 -4.084603,1.342765 -4.084603,7.021175 0,3.856404 -0.358905,5.341254 -1.221537,5.05371 -1.19833,-0.399444 -4.957952,-23.442573 -4.080445,-25.009489 0.231009,-0.4125 1.418331,-0.75 2.638493,-0.75 2.263592,0 6.309093,-2.255692 8.23295,-4.590532 0.874682,-1.061535 1.785324,-1.042883 5,0.102411 5.097357,1.816039 13.595836,1.812069 25.430539,-0.01188 27.269039,-4.202665 47.169384,2.150726 55.03615,17.57086 1.98019,3.881504 2.03977,5.364132 1.75677,43.723442 l -0.29292,39.705702 -2.73498,4.65245 c -5.448118,9.26771 -16.658462,14.50262 -33.26502,15.5338 -10.925331,0.67841 -14.748352,2.26815 -17.172727,7.14102 -1.655576,3.32763 -1.855823,7.25113 -2.131116,41.7556 -0.255574,32.03288 -0.07713,38.27102 1.123251,39.26725 0.784903,0.65141 2.159132,0.90348 3.053844,0.56014 1.270617,-0.48758 1.626748,-2.04205 1.626748,-7.10058 0,-4.73537 0.335903,-6.36438 1.249543,-6.05983 1.338949,0.44631 2.072963,4.46858 3.175784,17.40272 l 0.695123,8.15257 -3.439306,1.13508 c -1.891618,0.62429 -4.17689,1.95009 -5.078381,2.94623 -1.499343,1.65675 -2.082363,1.69617 -6.838848,0.46235 -6.61993,-1.71718 -16.190205,-1.72675 -21.855166,-0.0219 -3.957327,1.19098 -4.716493,1.13751 -7.408931,-0.52185 z M 70.674277,108.60953 c 4.244968,-2.97329 4.443805,-5.1708 4.144892,-45.808643 L 74.5346,24.113201 71.761873,21.34145 c -2.456749,-2.455885 -3.507708,-2.771752 -9.222222,-2.771752 -5.378337,0 -6.827798,0.378303 -8.727273,2.277778 l -2.277778,2.277778 0,40.891658 0,40.891658 2.424314,2.58057 c 2.092523,2.22739 3.259593,2.58056 8.527494,2.58056 3.732596,0 6.91291,-0.56716 8.187869,-1.46017 z m 75.209963,122.54544 c -8.88654,-2.84222 -16.4762,-8.70055 -20.19122,-15.58527 -2.08013,-3.85492 -2.17656,-5.43268 -2.65842,-43.5 l -0.5,-39.5 -2.71819,-4.6238 c -2.69429,-4.58313 -2.70089,-4.63946 -0.75,-6.40498 2.52907,-2.28878 2.51217,-5.66895 -0.0399,-7.97855 -1.72936,-1.56505 -1.8166,-2.03767 -0.62849,-3.40498 4.02719,-4.63463 4.12235,-5.54598 4.65594,-44.587692 0.5073,-37.117962 0.57362,-38.121019 2.85756,-43.213764 5.8754,-13.101068 22.07906,-21.757056 33.48152,-17.885819 6.00343,2.038217 13.27944,2.038309 19.28242,2.45e-4 4.02787,-1.367499 5.56016,-1.419079 10.57046,-0.35582 12.23615,2.596688 20.84251,10.470181 22.78161,20.841648 0.55389,2.962569 1.02683,20.737569 1.05097,39.5 0.0454,35.299912 0.43388,39.168992 4.36912,43.517392 1.47793,1.63309 1.44629,1.91347 -0.40491,3.58879 -2.651,2.39912 -2.60579,6.97528 0.0875,8.86176 l 2.09563,1.46784 -2.06049,2.83887 c -3.47462,4.78719 -4.07976,10.75793 -4.13905,40.83886 -0.0645,32.74623 -0.71762,40.03722 -4.28396,47.82715 -5.91011,12.90937 -21.58408,22.1499 -30.92565,18.23211 -4.74009,-1.98797 -15.37991,-2.01747 -19.14643,-0.0531 -3.62829,1.89229 -5.77451,1.82164 -12.78605,-0.42089 z m 30.48381,-15.97539 c 2.14933,-2.15044 2.16655,-2.4834 2.16655,-41.89277 l 0,-39.7251 -2.70999,-5.47414 c -2.69689,-5.44766 -2.70051,-5.48423 -0.75,-7.56046 2.43372,-2.59057 2.47817,-4.59591 0.1652,-7.45231 -1.74056,-2.14951 -1.71791,-2.37172 0.75,-7.35555 l 2.54479,-5.13908 0.30349,-38.63729 0.30349,-38.637284 -2.3207,-2.697968 c -2.00303,-2.328665 -3.102,-2.704989 -8.02861,-2.749258 -6.98776,-0.06279 -10.42303,1.904027 -11.27222,6.453761 -0.3344,1.791662 -0.46793,19.685024 -0.29673,39.763026 l 0.31128,36.505463 2.5,4.99454 2.5,4.99454 -2.25,2.21427 c -2.92975,2.88322 -2.8489,5.77774 0.24789,8.87453 l 2.49789,2.49789 -1.96184,2.70666 c -3.24532,4.47739 -4.01918,14.066 -4.01164,49.70665 0.008,36.33421 0.18019,37.72446 4.99741,40.27255 3.65101,1.93122 11.65042,1.00202 14.31374,-1.66267 z m 59.97273,15.76297 c -1.52189,-0.99834 -4.04378,-2.09558 -5.6042,-2.43831 -1.56041,-0.34272 -3.07305,-1.23795 -3.3614,-1.98939 -0.28836,-0.75145 0.41705,-6.67177 1.56757,-13.15628 1.15052,-6.48451 2.09185,-12.12726 2.09185,-12.53945 0,-0.41218 0.675,-0.74942 1.5,-0.74942 1.14738,0 1.5,1.26417 1.5,5.37756 0,5.76032 1.66909,8.55335 3.82379,6.39865 0.85558,-0.85558 1.17148,-10.32178 1.15885,-34.72621 -0.0184,-35.53135 -0.80482,-43.6937 -4.87439,-50.5911 -1.91713,-3.2493 -1.91752,-3.32154 -0.0266,-5.03275 2.64461,-2.39334 2.40132,-5.90113 -0.57148,-8.23953 -2.2787,-1.79243 -2.34973,-2.07422 -0.83748,-3.32258 0.90881,-0.75022 2.59176,-3.38904 3.73988,-5.86404 1.98367,-4.27622 2.10355,-6.431404 2.41071,-43.337429 0.30909,-37.137639 0.24344,-38.82222 -1.5,-38.489957 -1.49205,0.284354 -1.87731,1.480931 -2.12095,6.587427 -0.2174,4.555519 -0.67757,6.239957 -1.70473,6.239957 -0.80624,0 -1.64519,-1.387648 -1.9649,-3.25 -0.68025,-3.9626 -3.5327,-23.537725 -3.5327,-24.243418 0,-0.278621 1.4625,-0.508265 3.25,-0.510321 1.7875,-0.0021 4.66374,-0.86579 6.39165,-1.91941 2.84056,-1.732078 3.51143,-1.783846 7,-0.540155 5.13594,1.830984 11.96411,1.793665 25.57397,-0.139777 29.26276,-4.157122 50.06598,3.714408 56.34718,21.320676 1.67484,4.694562 1.97898,67.193803 0.36149,74.282407 -1.34868,5.91055 -4.96125,11.01167 -9.94673,14.04525 -7.8061,4.74987 -7.7194,4.23538 -1.34973,8.00956 4.08086,2.41801 6.71749,4.91179 8.8433,8.3642 l 3.02887,4.919 0.5,38.74934 c 0.275,21.31213 0.80756,39.05614 1.18347,39.43113 1.55559,1.55178 2.81653,-0.94522 2.81653,-5.5775 0,-3.69706 0.37284,-4.94098 1.48095,-4.94098 1.62581,0 1.91231,0.97427 3.52888,12 0.6048,4.125 1.32242,8.67677 1.59472,10.11504 0.43191,2.28139 0.0952,2.69501 -2.6389,3.24183 -1.72368,0.34474 -4.33359,1.47087 -5.79981,2.50252 -1.81732,1.2787 -3.30243,1.62196 -4.66584,1.07846 -2.58643,-1.03105 -13.41154,-1.03162 -16,-8.4e-4 -1.54536,0.6154 -2.74769,0.0332 -5.28919,-2.56106 -1.80905,-1.84664 -4.39655,-3.63545 -5.75,-3.97514 l -2.46081,-0.61763 0,-44.24236 c 0,-29.80083 -0.36181,-45.28026 -1.10842,-47.42198 -1.37409,-3.94174 -5.38642,-6.11884 -11.27682,-6.11884 -6.583,0 -9.48864,1.45391 -11.22876,5.6186 -1.28548,3.07658 -1.46471,9.22638 -1.17324,40.25636 0.18922,20.14377 0.7169,37.41254 1.17262,38.37504 0.45573,0.9625 1.68045,1.75 2.72161,1.75 1.62789,0 1.89301,-0.77028 1.89301,-5.5 0,-4.0855 0.36534,-5.5 1.42054,-5.5 0.7813,0 1.67149,1.2375 1.97818,2.75 0.55773,2.75044 3.60128,21.87403 3.60128,22.62794 0,0.21971 -1.48774,0.67858 -3.30608,1.0197 -1.81835,0.34113 -4.94571,1.45616 -6.94971,2.47785 -3.3113,1.6882 -4.12412,1.73299 -8.91184,0.49107 -6.67563,-1.73163 -13.95835,-1.73961 -20.57782,-0.0225 -4.69239,1.2172 -5.4424,1.17274 -7.94837,-0.47116 z m 56.64818,-122.37156 2.54564,-2.54454 0.29339,-38.799157 c 0.18636,-24.645634 -0.0781,-39.77634 -0.72508,-41.477916 -2.6381,-6.938752 -15.2563,-8.945022 -20.88324,-3.320398 l -2.68507,2.683967 -0.29376,38.90576 c -0.33043,43.761884 -0.1603,45.099724 5.97314,46.969504 5.43204,1.65597 12.83487,0.52162 15.77498,-2.41722 z m 78.08375,121.74871 c -2.45404,-1.2375 -5.52186,-2.25 -6.81739,-2.25 -1.76773,0 -2.23035,-0.43668 -1.85395,-1.75 0.27585,-0.9625 1.2358,-5.575 2.13323,-10.25 2.167,-11.28858 2.40503,-12 4.01513,-12 0.96014,0 1.47237,1.59823 1.68261,5.25 0.22256,3.86566 0.69779,5.25 1.80226,5.25 1.30152,0 1.53516,-4.89588 1.76572,-37 0.27723,-38.60214 -0.2378,-45.28784 -3.8416,-49.86934 -1.29227,-1.64285 -1.59188,-2.71796 -0.88004,-3.1579 0.59361,-0.36687 1.52291,-1.83387 2.06512,-3.25999 0.79117,-2.08093 0.57561,-3.14781 -1.09162,-5.40286 l -2.07745,-2.80991 1.99479,-2.75 c 3.54718,-4.89011 4.01551,-10.68536 4.04063,-50.000002 0.024,-37.462632 -0.0185,-38.292953 -2.06221,-40.336658 -2.20348,-2.203478 -6.58245,-1.98048 -8.16779,0.415942 -1.00577,1.520344 -0.46975,44.66089 0.58161,46.810173 0.6202,1.26786 -0.16437,2.174494 -3.46147,4 -5.65557,3.131322 -7.83939,7.158847 -8.56323,15.792831 -0.79414,9.47245 -2.85545,9.559271 -3.52878,0.148629 -0.58248,-8.140907 -2.80502,-12.565087 -8.02218,-15.968902 l -3.66015,-2.387985 1.70432,-3.112015 c 1.46317,-2.671669 1.74793,-6.95365 2.01243,-30.261625 l 0.30811,-27.14961 3.19189,-0.622141 c 1.75555,-0.342178 4.2568,-1.441313 5.55834,-2.442523 2.09302,-1.610052 2.78626,-1.670381 6,-0.522141 4.7811,1.708244 9.42995,1.706851 13.52472,-0.004 2.85832,-1.194282 4.08625,-1.184156 8.71788,0.07189 6.07233,1.646748 23.22155,1.281994 26.67719,-0.567408 1.5462,-0.827503 2.95048,-0.704535 5.86606,0.513671 4.26942,1.783878 13.42684,1.381065 15.93553,-0.700966 1.15143,-0.955601 1.8437,-0.846566 3.36474,0.529957 1.05328,0.953201 3.63234,2.322881 5.73124,3.043733 l 3.8162,1.310637 0.5,27.39142 c 0.43336,23.740621 0.7307,27.743083 2.23087,30.029905 l 1.73088,2.638486 -4.23088,2.314374 c -5.25024,2.871988 -7.57664,7.356864 -8.40223,16.197996 -0.42927,4.596934 -1.03154,6.616378 -1.97324,6.616378 -0.96771,0 -1.357,-1.501682 -1.36098,-5.25 -0.0105,-9.897093 -3.3714,-16.065574 -10.14773,-18.624869 -2.5963,-0.980576 -2.6241,-1.083993 -1.29389,-4.813618 0.96457,-2.704467 1.37216,-9.547859 1.40331,-23.561513 0.041,-18.44882 -0.0879,-19.881765 -1.95611,-21.75 -2.35495,-2.354947 -4.8693,-2.547707 -7.55887,-0.579492 -1.86662,1.365985 -1.94113,2.987838 -1.94113,42.254189 l 0,40.833687 2.54479,5.14012 c 2.46791,4.98485 2.49056,5.20709 0.75,7.3566 -2.28549,2.82245 -2.28241,5.52178 0.009,7.7449 1.73811,1.68643 1.7376,1.84136 -0.0141,4.26476 -3.10132,4.29048 -3.77771,13.26436 -3.7837,50.20006 -0.006,34.81614 0.0451,35.74202 2.01488,36.79624 3.07749,1.64703 3.97933,0.38468 3.97933,-5.57008 0,-4.65919 0.27022,-5.44098 1.88062,-5.44098 1.6592,0 2.02542,1.34419 3.11042,11.41683 0.67639,6.27925 0.92855,11.90425 0.56036,12.5 -0.36819,0.59574 -1.50835,1.08317 -2.53369,1.08317 -1.02534,0 -3.15257,1.08404 -4.72717,2.40898 -2.78092,2.33999 -3.01844,2.36863 -8.29465,1 -6.71841,-1.74274 -14.99078,-1.80383 -21.52796,-0.15898 -4.56227,1.14793 -5.33227,1.06628 -9.42982,-1 z m 80.17901,-0.32378 c -2.90558,-1.52981 -5.68302,-2.92654 -6.17209,-3.10385 -0.49331,-0.17884 -0.14129,-5.88764 0.79066,-12.82237 1.29887,-9.66499 2.0183,-12.5 3.17209,-12.5 1.11863,0 1.6174,1.62733 1.99222,6.5 0.37607,4.88889 0.87179,6.5 2,6.5 1.30864,0 1.5,-5.16718 1.5,-40.50464 l 0,-40.50464 -2.70485,-5.4631 c -2.67809,-5.40907 -2.68551,-5.48111 -0.75,-7.28431 2.50627,-2.33494 2.47694,-4.80986 -0.0957,-8.08051 l -2.0506,-2.60691 2.01546,-2.77794 c 3.55144,-4.89504 4.03613,-10.69529 4.06129,-48.601276 0.0229,-34.537513 -0.0842,-36.802651 -1.72555,-36.490282 -1.38044,0.262712 -1.81333,1.545256 -2.0499,6.073324 -0.25036,4.79093 -0.60321,5.740282 -2.13356,5.740282 -1.53194,0 -1.94202,-1.110471 -2.49263,-6.75 -0.36247,-3.7125 -0.91626,-9.277782 -1.23065,-12.367294 l -0.57161,-5.617295 3.58471,-0.672496 c 1.97159,-0.369874 4.83546,-1.71035 6.36415,-2.978838 2.51259,-2.084915 3.06746,-2.181433 5.77944,-1.005313 4.25669,1.846022 16.57313,1.696243 26.30044,-0.319837 8.17942,-1.695264 8.42729,-1.687661 17,0.521475 8.59652,2.215268 16.34023,2.676597 21.19956,1.262956 1.8671,-0.543162 3.21562,-0.138185 5.32673,1.59968 1.55469,1.279829 3.46719,2.326961 4.25,2.326961 1.77319,0 1.77624,-0.05278 -0.26714,4.627877 -1.37006,3.138303 -1.76968,8.090642 -2.10866,26.131816 -0.37596,20.009001 -0.24009,22.531597 1.34377,24.948879 0.96912,1.479052 1.35551,2.825432 0.85866,2.991953 -7.91031,2.651176 -11.18733,7.180171 -12.07523,16.68855 -0.79327,8.494915 -2.84138,8.915468 -3.5831,0.73574 -0.76661,-8.454376 -3.04647,-12.608232 -8.32164,-15.1619 -4.38579,-2.123125 -4.38903,-2.128685 -2.90703,-4.994543 1.15564,-2.234769 1.48364,-6.984495 1.48364,-21.484453 0,-23.771084 -0.29293,-24.453292 -10.5,-24.453292 -6.58387,0 -7.64553,0.414844 -9.3503,3.653633 -1.6348,3.105865 -1.61486,77.200713 0.0217,80.792663 1.39026,3.05128 5.02929,4.20828 8.4023,2.67143 2.78036,-1.26681 3.12532,-4.30149 0.92626,-8.14835 -0.78602,-1.375002 -1.44508,-4.379841 -1.46456,-6.677422 -0.0284,-3.345671 0.48918,-4.590083 2.59942,-6.25 3.61718,-2.845275 5.20195,-2.669735 4.59432,0.5089 -0.39238,2.052553 0.43193,3.538029 4.02307,7.25 4.463,4.613152 6.74775,8.032932 6.74775,10.099902 0,0.58457 -1.54216,2.76985 -3.42703,4.85617 l -3.42702,3.79331 4.42702,2.34853 c 4.7803,2.53594 5.41433,3.60641 2.67703,4.51975 -0.9625,0.32115 -2.80579,1.39856 -4.09621,2.39425 l -2.3462,1.81035 3.16589,3.16589 c 4.08426,4.08426 3.52753,6.09634 -3.55409,12.8448 -5.56222,5.30054 -6.23463,6.94375 -4.31173,10.53674 1.02736,1.91963 0.90048,2.02089 -1.75,1.39661 -1.57171,-0.37019 -3.91627,-1.85983 -5.21012,-3.31031 -2.7929,-3.13099 -2.48497,-7.77174 0.79211,-11.93788 3.88613,-4.94041 2.18057,-9.34959 -3.6166,-9.34959 -6.39845,0 -6.37611,-0.16924 -6.08427,46.0916 l 0.26126,41.4084 2.5,0 c 2.36824,0 2.51569,-0.32939 2.79772,-6.25 0.2097,-4.40238 0.69303,-6.25 1.63496,-6.25 1.26981,0 1.62533,1.7491 4.20605,20.69273 0.55824,4.09774 0.48467,4.22887 -3.24718,5.78814 -2.10009,0.87747 -4.55939,2.26603 -5.4651,3.08569 -1.28598,1.1638 -2.25286,1.25984 -4.41344,0.43839 -6.50867,-2.47459 -19.06609,-2.34899 -28.51524,0.28521 -0.82377,0.22964 -3.87507,-0.83413 -6.78065,-2.36394 z m 117.63252,1.15905 c -8.88654,-2.84222 -16.4762,-8.70055 -20.19122,-15.58527 -2.08013,-3.85492 -2.17656,-5.43268 -2.65842,-43.5 l -0.5,-39.5 -2.71819,-4.6238 c -2.69429,-4.58313 -2.70089,-4.63946 -0.75,-6.40498 2.52907,-2.28878 2.51217,-5.66895 -0.0399,-7.97855 -1.72936,-1.56505 -1.8166,-2.03767 -0.62849,-3.40498 4.02719,-4.63463 4.12235,-5.54598 4.65594,-44.587692 0.5073,-37.117962 0.57362,-38.121019 2.85756,-43.213764 5.8754,-13.101068 22.07906,-21.757056 33.48152,-17.885819 6.00343,2.038217 13.27944,2.038309 19.28242,2.45e-4 4.02787,-1.367499 5.56016,-1.419079 10.57046,-0.35582 12.23615,2.596688 20.84251,10.470181 22.78161,20.841648 0.55389,2.962569 1.02683,20.737569 1.05097,39.5 0.0454,35.299912 0.43388,39.168992 4.36912,43.517392 1.47793,1.63309 1.44629,1.91347 -0.40491,3.58879 -2.651,2.39912 -2.60579,6.97528 0.0875,8.86176 l 2.09563,1.46784 -2.06049,2.83887 c -3.47462,4.78719 -4.07976,10.75793 -4.13905,40.83886 -0.0645,32.74623 -0.71762,40.03722 -4.28396,47.82715 -5.91011,12.90937 -21.58408,22.1499 -30.92565,18.23211 -4.74009,-1.98797 -15.37991,-2.01747 -19.14643,-0.0531 -3.62829,1.89229 -5.77451,1.82164 -12.78605,-0.42089 z m 30.48381,-15.97539 c 2.14933,-2.15044 2.16655,-2.4834 2.16655,-41.89277 l 0,-39.7251 -2.70999,-5.47414 c -2.69689,-5.44766 -2.70051,-5.48423 -0.75,-7.56046 2.43372,-2.59057 2.47817,-4.59591 0.1652,-7.45231 -1.74056,-2.14951 -1.71791,-2.37172 0.75,-7.35555 l 2.54479,-5.13908 0.30349,-38.63729 0.30349,-38.637284 -2.3207,-2.697968 c -2.00303,-2.328665 -3.102,-2.704989 -8.02861,-2.749258 -6.98776,-0.06279 -10.42303,1.904027 -11.27222,6.453761 -0.3344,1.791662 -0.46793,19.685024 -0.29673,39.763026 l 0.31128,36.505463 2.5,4.99454 2.5,4.99454 -2.25,2.21427 c -2.92975,2.88322 -2.8489,5.77774 0.24789,8.87453 l 2.49789,2.49789 -1.96184,2.70666 c -3.24532,4.47739 -4.01918,14.066 -4.01164,49.70665 0.008,36.33421 0.18019,37.72446 4.99741,40.27255 3.65101,1.93122 11.65042,1.00202 14.31374,-1.66267 z m 61.41261,15.40695 c -1.51467,-1.33523 -4.32717,-2.72282 -6.25,-3.08355 -3.97772,-0.74622 -4.01107,-0.90594 -2.49243,-11.93328 1.67411,-12.15615 2.02666,-13.5 3.54168,-13.5 1.10835,0 1.45469,1.40303 1.45469,5.89301 0,6.02052 1.47282,8.23417 3.87814,5.82885 1.51711,-1.51711 1.55684,-73.59517 0.0445,-80.64714 -0.59256,-2.76305 -2.12984,-6.57459 -3.41617,-8.4701 -2.29879,-3.38746 -2.30601,-3.47602 -0.4226,-5.18049 2.49732,-2.26004 2.4313,-5.24689 -0.17735,-8.02368 l -2.09352,-2.22845 2.19876,-2.97399 c 4.29663,-5.8115 4.95594,-12.290467 4.97266,-48.866225 0.009,-18.792516 -0.25752,-34.880016 -0.59137,-35.75 -0.78225,-2.038509 -3.00377,-2.038509 -3.78602,0 -0.33385,0.869984 -0.60699,3.569984 -0.60699,6 -4e-5,3.07561 -0.41661,4.418213 -1.37087,4.418213 -0.93251,0 -1.56297,-1.838574 -1.97172,-5.75 -0.33048,-3.1625 -0.89311,-8.530479 -1.25028,-11.928843 l -0.6494,-6.178843 3.87111,-1.046366 c 2.12912,-0.575501 4.78836,-1.691313 5.90942,-2.479583 1.76196,-1.238905 2.77445,-1.242266 7.46793,-0.02479 6.80882,1.766185 14.01785,1.777719 20.57,0.03291 4.32041,-1.150507 5.36267,-1.141846 7,0.05817 1.05807,0.775471 3.85903,1.898266 6.22435,2.4951 3.92483,0.990338 4.25403,1.313947 3.76775,3.7037 -0.29306,1.440201 -0.99881,5.768549 -1.56833,9.618549 -1.61534,10.919726 -2.06155,12.5 -3.52955,12.5 -0.96717,0 -1.45892,-1.692616 -1.67055,-5.75 -0.26416,-5.064731 -0.56384,-5.787531 -2.51455,-6.064919 -1.62873,-0.231601 -2.37114,0.308572 -2.80613,2.041693 -0.32531,1.296137 -0.45372,19.437851 -0.28535,40.314919 0.30268,37.529905 0.33205,38.002165 2.60266,41.844335 l 2.29653,3.88602 -2.04653,2.17843 c -2.73776,2.91421 -2.58167,5.98343 0.42456,8.34813 2.42762,1.90957 2.43726,1.97437 0.54768,3.68442 -3.55827,3.22018 -4.10152,10.4229 -3.80364,50.43088 l 0.28487,38.26099 2.80576,2.41255 c 2.21355,1.90333 3.94114,2.41255 8.1849,2.41255 12.05239,0 13.51502,-2.40623 13.49456,-22.20034 -0.01,-9.19705 -0.55265,-16.58146 -1.52212,-20.69421 -0.82903,-3.51701 -1.38488,-6.442 -1.23521,-6.49999 7.45693,-2.88966 10.04448,-6.81906 10.72284,-16.28354 0.71486,-9.97376 2.56117,-10.68399 3.34887,-1.28823 0.72259,8.61897 2.90277,12.69116 8.43461,15.75433 l 4.13197,2.28801 -1.66205,3.71198 c -2.48036,5.53959 -2.49159,45.9747 -0.0143,51.44015 1.82927,4.03577 1.7711,4.1484 -2.68985,5.20771 -1.65,0.39181 -3.90667,1.55805 -5.01481,2.59163 -1.76208,1.64351 -2.55817,1.74131 -6.34649,0.77974 -3.24095,-0.82264 -6.38475,-0.78341 -12.48519,0.15581 -8.82893,1.3593 -15.75848,1.13584 -30.91435,-0.9969 -9.40002,-1.32277 -12.71405,-1.08074 -18.73916,1.36858 -0.85885,0.34914 -2.67713,-0.42789 -4.25394,-1.8179 z m 93.16415,0.86616 c -0.77561,-0.93941 -3.35108,-2.5685 -5.72326,-3.62019 -3.84123,-1.70299 -4.2534,-2.20483 -3.76775,-4.58749 0.29992,-1.47142 1.01128,-5.82531 1.5808,-9.67531 1.62212,-10.96561 2.06151,-12.5 3.57946,-12.5 1.08239,0 1.42054,1.55474 1.42054,6.53138 0,5.06619 0.35914,6.6692 1.60092,7.14572 0.88051,0.33788 2.01188,-0.0137 2.51416,-0.78138 0.52423,-0.8012 0.80071,-18.64718 0.64908,-41.89572 -0.26034,-39.91436 -0.29697,-40.56244 -2.53343,-44.81777 -2.24908,-4.27934 -2.25216,-4.33952 -0.34673,-6.76189 2.15463,-2.73916 1.78559,-5.98523 -0.86891,-7.64299 -1.57956,-0.98645 -1.51125,-1.4235 0.88675,-5.67307 l 2.59816,-4.60428 0.30236,-40.261293 c 0.27559,-36.695273 0.15593,-40.317483 -1.35092,-40.895717 -2.36628,-0.908027 -3.41849,1.360143 -3.43613,7.407008 -0.011,3.759051 -0.40255,5.25 -1.37888,5.25 -0.98802,0 -1.81497,-3.373849 -3.00256,-12.25 -1.99481,-14.909412 -2.01139,-13.750001 0.19665,-13.750001 1.00679,0 3.82575,-1.0125 6.26436,-2.25 4.11115,-2.086252 4.79667,-2.154902 9.41948,-0.943291 5.60893,1.470068 19.02947,1.04298 22.30458,-0.709809 1.69929,-0.909432 2.73988,-0.657401 5.76679,1.396717 2.03135,1.378511 4.75557,2.506383 6.05382,2.506383 2.90041,0 2.95951,1.862572 0.53685,16.917314 -1.97545,12.275667 -4.1677,14.846728 -4.19171,4.91602 -0.017,-7.019632 -0.97694,-9.434021 -3.38377,-8.510435 -1.42941,0.548519 -1.5983,4.661866 -1.57647,38.395717 0.025,38.641997 0.50706,44.658347 3.95998,49.422297 1.88751,2.60418 1.88703,2.66545 -0.0351,4.40499 -2.45855,2.22496 -2.47384,4.58472 -0.0491,7.57914 1.86263,2.30025 1.86291,2.39894 0.0142,4.99516 -3.50158,4.91751 -3.96435,11.18148 -3.68506,49.8798 0.26519,36.74312 0.31102,37.5 2.27065,37.5 1.70765,0 2.04418,-0.76742 2.30226,-5.25 0.21117,-3.66793 0.72075,-5.25 1.69098,-5.25 2.10161,0 2.25416,0.63614 3.02941,12.6325 l 0.71943,11.1325 -3.55856,1.17443 c -1.9572,0.64594 -4.69894,2.07146 -6.09274,3.16783 -2.08509,1.64012 -2.9162,1.78895 -4.68973,0.83978 -4.72773,-2.5302 -20.42107,-2.24948 -26.99084,0.4828 -0.94391,0.39257 -2.1627,-0.0327 -3,-1.04685 z m 82.93943,-0.29772 c -8.88654,-2.84222 -16.4762,-8.70055 -20.19122,-15.58527 -2.08013,-3.85492 -2.17656,-5.43268 -2.65842,-43.5 l -0.5,-39.5 -2.71819,-4.6238 c -2.69429,-4.58313 -2.70089,-4.63946 -0.75,-6.40498 2.52907,-2.28878 2.51217,-5.66895 -0.0399,-7.97855 -1.72936,-1.56505 -1.8166,-2.03767 -0.62849,-3.40498 4.02719,-4.63463 4.12235,-5.54598 4.65594,-44.587692 0.5073,-37.117962 0.57362,-38.121019 2.85756,-43.213764 5.8754,-13.101068 22.07906,-21.757056 33.48152,-17.885819 6.00343,2.038217 13.27944,2.038309 19.28242,2.45e-4 4.02787,-1.367499 5.56016,-1.419079 10.57046,-0.35582 12.23615,2.596688 20.84251,10.470181 22.78161,20.841648 0.55389,2.962569 1.02683,20.737569 1.05097,39.5 0.0454,35.299912 0.43388,39.168992 4.36912,43.517392 1.47793,1.63309 1.44629,1.91347 -0.40491,3.58879 -2.651,2.39912 -2.60579,6.97528 0.0875,8.86176 l 2.09563,1.46784 -2.06049,2.83887 c -3.47462,4.78719 -4.07976,10.75793 -4.13905,40.83886 -0.0645,32.74623 -0.71762,40.03722 -4.28396,47.82715 -5.91011,12.90937 -21.58408,22.1499 -30.92565,18.23211 -4.74009,-1.98797 -15.37991,-2.01747 -19.14643,-0.0531 -3.62829,1.89229 -5.77451,1.82164 -12.78605,-0.42089 z m 30.48381,-15.97539 c 2.14933,-2.15044 2.16655,-2.4834 2.16655,-41.89277 l 0,-39.7251 -2.70999,-5.47414 c -2.69689,-5.44766 -2.70051,-5.48423 -0.75,-7.56046 2.43372,-2.59057 2.47817,-4.59591 0.1652,-7.45231 -1.74056,-2.14951 -1.71791,-2.37172 0.75,-7.35555 l 2.54479,-5.13908 0.30349,-38.63729 0.30349,-38.637284 -2.3207,-2.697968 c -2.00303,-2.328665 -3.102,-2.704989 -8.02861,-2.749258 -6.98776,-0.06279 -10.42303,1.904027 -11.27222,6.453761 -0.3344,1.791662 -0.46793,19.685024 -0.29673,39.763026 l 0.31128,36.505463 2.5,4.99454 2.5,4.99454 -2.25,2.21427 c -2.92975,2.88322 -2.8489,5.77774 0.24789,8.87453 l 2.49789,2.49789 -1.96184,2.70666 c -3.24532,4.47739 -4.01918,14.066 -4.01164,49.70665 0.008,36.33421 0.18019,37.72446 4.99741,40.27255 3.65101,1.93122 11.65042,1.00202 14.31374,-1.66267 z"/>
</svg>
